<svg width="22" height="22" viewBox="0 0 22 22" fill="none" xmlns="http://www.w3.org/2000/svg">
<path fill-rule="evenodd" clip-rule="evenodd" d="M9.7999 2.40002C8.36396 2.40002 7.1999 3.56408 7.1999 5.00002C7.1999 6.43596 8.36396 7.60002 9.7999 7.60002C11.2358 7.60002 12.3999 6.43596 12.3999 5.00002C12.3999 3.56408 11.2358 2.40002 9.7999 2.40002ZM5.1999 5.00002C5.1999 2.45951 7.25939 0.400024 9.7999 0.400024C12.3404 0.400024 14.3999 2.45951 14.3999 5.00002C14.3999 7.54053 12.3404 9.60002 9.7999 9.60002C7.25939 9.60002 5.1999 7.54053 5.1999 5.00002ZM21.3071 11.8744C21.6976 12.265 21.6976 12.8981 21.3071 13.2887L20.1049 14.4908L21.307 15.6929C21.6975 16.0834 21.6975 16.7166 21.307 17.1071C20.9165 17.4977 20.2833 17.4977 19.8928 17.1071L18.6907 15.905L17.4887 17.107C17.0982 17.4976 16.465 17.4976 16.0745 17.107C15.684 16.7165 15.684 16.0833 16.0745 15.6928L17.2765 14.4908L16.0744 13.2888C15.6839 12.8982 15.6839 12.2651 16.0744 11.8745C16.4649 11.484 17.0981 11.484 17.4886 11.8745L18.6907 13.0766L19.8929 11.8744C20.2834 11.4839 20.9166 11.4839 21.3071 11.8744ZM0.400307 16.9995C0.400593 14.4592 2.46 12.4 5.00031 12.4H12.1999C12.7522 12.4 13.1999 12.8477 13.1999 13.4C13.1999 13.9523 12.7522 14.4 12.1999 14.4H5.00031C3.56448 14.4 2.40047 15.5639 2.40031 16.9997L2.3999 20.6001C2.39984 21.1524 1.95207 21.6001 1.39979 21.6C0.847505 21.6 0.39984 21.1522 0.399902 20.5999L0.400307 16.9995Z" fill="black"/>
</svg>
