<svg width="22" height="22" viewBox="0 0 22 22" fill="none" xmlns="http://www.w3.org/2000/svg">
<path fill-rule="evenodd" clip-rule="evenodd" d="M9.7999 2.40002C8.36396 2.40002 7.1999 3.56408 7.1999 5.00002C7.1999 6.43596 8.36396 7.60002 9.7999 7.60002C11.2358 7.60002 12.3999 6.43596 12.3999 5.00002C12.3999 3.56408 11.2358 2.40002 9.7999 2.40002ZM5.1999 5.00002C5.1999 2.45951 7.25939 0.400024 9.7999 0.400024C12.3404 0.400024 14.3999 2.45951 14.3999 5.00002C14.3999 7.54053 12.3404 9.60002 9.7999 9.60002C7.25939 9.60002 5.1999 7.54053 5.1999 5.00002ZM0.400307 16.9995C0.400593 14.4592 2.46 12.4 5.00031 12.4H12.1998C12.752 12.4 13.1998 12.8477 13.1998 13.4C13.1998 13.9523 12.752 14.4 12.1998 14.4H5.00031C3.56448 14.4 2.40047 15.5639 2.40031 16.9997L2.3999 20.6001C2.39984 21.1524 1.95207 21.6001 1.39979 21.6C0.847505 21.6 0.39984 21.1522 0.399902 20.5999L0.400307 16.9995ZM19.8928 12.6929C20.2833 12.3024 20.9165 12.3024 21.307 12.6929C21.6975 13.0834 21.6975 13.7166 21.307 14.1071L17.107 18.3071C16.7165 18.6977 16.0833 18.6977 15.6928 18.3071L14.4928 17.1071C14.1023 16.7166 14.1023 16.0834 14.4928 15.6929C14.8833 15.3024 15.5165 15.3024 15.907 15.6929L16.3999 16.1858L19.8928 12.6929Z" fill="black"/>
</svg>
