<svg width="26" height="18" viewBox="0 0 26 18" fill="none" xmlns="http://www.w3.org/2000/svg">
<path fill-rule="evenodd" clip-rule="evenodd" d="M8.23491 3.40933C7.45795 1.63342 9.31189 -0.149511 11.0561 0.696173L24.3114 7.123C25.8794 7.8832 25.8794 10.1169 24.3114 10.8771L11.0561 17.3039C9.3119 18.1496 7.45795 16.3667 8.23491 14.5907L10.6658 9.03452C10.6754 9.01254 10.6754 8.98754 10.6658 8.96555L8.23491 3.40933ZM12.4264 10L10.0672 15.3924C10.0587 15.4119 10.0569 15.4237 10.0565 15.4287C10.056 15.434 10.0563 15.4381 10.0573 15.4425C10.0596 15.4524 10.0674 15.4706 10.0864 15.4889C10.1054 15.5072 10.1239 15.5143 10.1339 15.5161C10.1383 15.5169 10.1425 15.5171 10.1477 15.5164C10.1526 15.5158 10.1644 15.5136 10.1836 15.5043L21.5361 10L12.4264 10ZM21.536 8.00003L12.4264 8.00003L10.0672 2.60769C10.0587 2.58814 10.0569 2.57632 10.0565 2.57138C10.056 2.56612 10.0563 2.56192 10.0573 2.55758C10.0596 2.54768 10.0674 2.5295 10.0864 2.5112C10.1054 2.49291 10.1239 2.48581 10.1339 2.48395C10.1383 2.48313 10.1425 2.48294 10.1477 2.48364C10.1526 2.48429 10.1644 2.48649 10.1836 2.4958L21.536 8.00003ZM2.91245 5.12359C2.91245 4.5713 3.36017 4.12359 3.91245 4.12359H6.34676C6.89905 4.12359 7.34676 4.5713 7.34676 5.12359C7.34676 5.67587 6.89905 6.12359 6.34676 6.12359H3.91245C3.36017 6.12359 2.91245 5.67587 2.91245 5.12359ZM0.512451 9.14646C0.512451 8.59417 0.960166 8.14646 1.51245 8.14646H6.34676C6.89905 8.14646 7.34676 8.59417 7.34676 9.14646C7.34676 9.69874 6.89905 10.1465 6.34676 10.1465H1.51245C0.960166 10.1465 0.512451 9.69874 0.512451 9.14646ZM2.91245 13.1693C2.91245 12.6171 3.36017 12.1693 3.91245 12.1693H6.34676C6.89905 12.1693 7.34676 12.6171 7.34676 13.1693C7.34676 13.7216 6.89905 14.1693 6.34676 14.1693H3.91245C3.36017 14.1693 2.91245 13.7216 2.91245 13.1693Z" fill="black"/>
</svg>
