<svg xmlns="http://www.w3.org/2000/svg" width="20" height="20" fill="none" viewBox="0 0 20 20">
  <path fill="#545F71" fill-rule="evenodd" d="M3 0a1 1 0 0 1 1 1v1h1a1 1 0 0 1 0 2H4v1a1 1 0 0 1-2 0V4H1a1 1 0 0 1 0-2h1V1a1 1 0 0 1 1-1Zm8 0a1 1 0 0 1 .949.684l2.135 6.404 5.267 1.976a1 1 0 0 1 0 1.872l-5.267 1.976-2.135 6.404a1 1 0 0 1-1.898 0l-2.135-6.404-5.267-1.976a1 1 0 0 1 0-1.872l5.267-1.976L10.051.684A1 1 0 0 1 11 0Zm0 4.162L9.663 8.173a1 1 0 0 1-.598.62L5.848 10l3.217 1.207a1 1 0 0 1 .598.62L11 15.837l1.337-4.01a1 1 0 0 1 .598-.62L16.152 10l-3.217-1.207a1 1 0 0 1-.598-.62L11 4.163ZM4 14a1 1 0 0 1 1 1v1h1a1 1 0 1 1 0 2H5v1a1 1 0 1 1-2 0v-1H2a1 1 0 1 1 0-2h1v-1a1 1 0 0 1 1-1Z" clip-rule="evenodd"/>
</svg>
